<?xml version="1.0" encoding="us-ascii" standalone="no"?><svg xmlns="http://www.w3.org/2000/svg" xmlns:xlink="http://www.w3.org/1999/xlink" contentStyleType="text/css" height="1496px" preserveAspectRatio="none" style="width:508px;height:1496px;background:#FFFFFF;" version="1.1" viewBox="0 0 508 1496" width="508px" zoomAndPan="magnify"><defs/><g><ellipse cx="256.25" cy="20" fill="#222222" rx="10" ry="10" style="stroke:#222222;stroke-width:1.0;"/><rect fill="#FFFFFF" height="33.9688" rx="12.5" ry="12.5" style="stroke:#333333;stroke-width:0.5;" width="279" x="116.75" y="50"/><text fill="#000000" font-family="Courier" font-size="12" lengthAdjust="spacing" textLength="259" x="126.75" y="71.1387">Initialize&#160;directories&#160;(data/,&#160;logs/)</text><rect fill="#FFFFFF" height="75.875" rx="12.5" ry="12.5" style="stroke:#333333;stroke-width:0.5;" width="195" x="158.75" y="103.9688"/><text fill="#000000" font-family="Courier" font-size="12" lengthAdjust="spacing" textLength="105" x="168.75" y="125.1074">Create&#160;services</text><text fill="#000000" font-family="Courier" font-size="12" lengthAdjust="spacing" textLength="98" x="168.75" y="139.0762">StorageService</text><text fill="#000000" font-family="Courier" font-size="12" lengthAdjust="spacing" textLength="126" x="168.75" y="153.0449">TransactionService</text><text fill="#000000" font-family="Courier" font-size="12" lengthAdjust="spacing" textLength="175" x="168.75" y="167.0137">LoggerService&#160;(subscribe)</text><rect fill="#FFFFFF" height="33.9688" rx="12.5" ry="12.5" style="stroke:#333333;stroke-width:0.5;" width="195" x="158.75" y="243.8438"/><text fill="#000000" font-family="Courier" font-size="12" lengthAdjust="spacing" textLength="175" x="168.75" y="264.9824">Clear&#160;console&#160;&amp;&#160;show&#160;menu</text><rect fill="#FFFFFF" height="33.9688" rx="12.5" ry="12.5" style="stroke:#333333;stroke-width:0.5;" width="132" x="190.25" y="297.8125"/><text fill="#000000" font-family="Courier" font-size="12" lengthAdjust="spacing" textLength="112" x="200.25" y="318.9512">Read&#160;user&#160;choice</text><polygon fill="#FFFFFF" points="235.25,398.9668,277.25,398.9668,289.25,410.9668,277.25,422.9668,235.25,422.9668,223.25,410.9668,235.25,398.9668" style="stroke:#333333;stroke-width:0.5;"/><text fill="#000000" font-family="Courier" font-size="11" lengthAdjust="spacing" textLength="42" x="235.25" y="414.7749">Valid?</text><text fill="#000000" font-family="sans-serif" font-size="11" lengthAdjust="spacing" textLength="18" x="205.25" y="408.6465">yes</text><text fill="#000000" font-family="sans-serif" font-size="11" lengthAdjust="spacing" textLength="14" x="289.25" y="408.6465">no</text><rect fill="#FFFFFF" height="33.9688" rx="12.5" ry="12.5" style="stroke:#333333;stroke-width:0.5;" width="188" x="46" y="432.9668"/><text fill="#000000" font-family="Courier" font-size="12" lengthAdjust="spacing" textLength="168" x="56" y="454.1055">TransactionService.Add()</text><rect fill="#FFFFFF" height="33.9688" rx="12.5" ry="12.5" style="stroke:#333333;stroke-width:0.5;" width="258" x="11" y="486.9355"/><text fill="#000000" font-family="Courier" font-size="12" lengthAdjust="spacing" textLength="238" x="21" y="508.0742">StorageService.AppendTransaction()</text><rect fill="#FFFFFF" height="33.9688" rx="12.5" ry="12.5" style="stroke:#333333;stroke-width:0.5;" width="216" x="32" y="540.9043"/><text fill="#000000" font-family="Courier" font-size="12" lengthAdjust="spacing" textLength="196" x="42" y="562.043">Event&#160;TransactionAdded&#160;fired</text><rect fill="#FFFFFF" height="33.9688" rx="12.5" ry="12.5" style="stroke:#333333;stroke-width:0.5;" width="188" x="46" y="594.873"/><text fill="#000000" font-family="Courier" font-size="12" lengthAdjust="spacing" textLength="168" x="56" y="616.0117">LoggerService&#160;logs&#160;entry</text><rect fill="#FFFFFF" height="33.9688" rx="12.5" ry="12.5" style="stroke:#333333;stroke-width:0.5;" width="167" x="289" y="432.9668"/><text fill="#000000" font-family="Courier" font-size="12" lengthAdjust="spacing" textLength="147" x="299" y="454.1055">Show&#160;validation&#160;error</text><polygon fill="#FFFFFF" points="256.25,634.8418,268.25,646.8418,256.25,658.8418,244.25,646.8418,256.25,634.8418" style="stroke:#333333;stroke-width:0.5;"/><rect fill="#FFFFFF" height="33.9688" rx="12.5" ry="12.5" style="stroke:#333333;stroke-width:0.5;" width="202" x="155.25" y="726.0273"/><text fill="#000000" font-family="Courier" font-size="12" lengthAdjust="spacing" textLength="182" x="165.25" y="747.166">Load&#160;transactions&#160;for&#160;date</text><polygon fill="#FFFFFF" points="221.25,779.9961,291.25,779.9961,303.25,791.9961,291.25,803.9961,221.25,803.9961,209.25,791.9961,221.25,779.9961" style="stroke:#333333;stroke-width:0.5;"/><text fill="#000000" font-family="Courier" font-size="11" lengthAdjust="spacing" textLength="70" x="221.25" y="795.8042">Any&#160;found?</text><text fill="#000000" font-family="sans-serif" font-size="11" lengthAdjust="spacing" textLength="18" x="191.25" y="789.6758">yes</text><text fill="#000000" font-family="sans-serif" font-size="11" lengthAdjust="spacing" textLength="14" x="303.25" y="789.6758">no</text><rect fill="#FFFFFF" height="33.9688" rx="12.5" ry="12.5" style="stroke:#333333;stroke-width:0.5;" width="195" x="61.75" y="813.9961"/><text fill="#000000" font-family="Courier" font-size="12" lengthAdjust="spacing" textLength="175" x="71.75" y="835.1348">Prompt&#160;for&#160;GUID&#160;&amp;&#160;confirm</text><rect fill="#FFFFFF" height="33.9688" rx="12.5" ry="12.5" style="stroke:#333333;stroke-width:0.5;" width="209" x="54.75" y="880.4063"/><text fill="#000000" font-family="Courier" font-size="12" lengthAdjust="spacing" textLength="189" x="64.75" y="901.5449">TransactionService.Remove()</text><rect fill="#FFFFFF" height="33.9688" rx="12.5" ry="12.5" style="stroke:#333333;stroke-width:0.5;" width="139" x="89.75" y="934.375"/><text fill="#000000" font-family="Courier" font-size="12" lengthAdjust="spacing" textLength="119" x="99.75" y="955.5137">Show&#160;success/fail</text><rect fill="#FFFFFF" height="33.9688" rx="12.5" ry="12.5" style="stroke:#333333;stroke-width:0.5;" width="139" x="283.75" y="813.9961"/><text fill="#000000" font-family="Courier" font-size="12" lengthAdjust="spacing" textLength="119" x="293.75" y="835.1348">Notify&#160;none&#160;found</text><polygon fill="#FFFFFF" points="256.25,974.3438,268.25,986.3438,256.25,998.3438,244.25,986.3438,256.25,974.3438" style="stroke:#333333;stroke-width:0.5;"/><polygon fill="#FFFFFF" points="214.25,1065.5293,298.25,1065.5293,310.25,1077.5293,298.25,1089.5293,214.25,1089.5293,202.25,1077.5293,214.25,1065.5293" style="stroke:#333333;stroke-width:0.5;"/><text fill="#000000" font-family="Courier" font-size="11" lengthAdjust="spacing" textLength="84" x="214.25" y="1081.3374">Range&#160;valid?</text><text fill="#000000" font-family="sans-serif" font-size="11" lengthAdjust="spacing" textLength="18" x="184.25" y="1075.209">yes</text><text fill="#000000" font-family="sans-serif" font-size="11" lengthAdjust="spacing" textLength="14" x="310.25" y="1075.209">no</text><rect fill="#FFFFFF" height="33.9688" rx="12.5" ry="12.5" style="stroke:#333333;stroke-width:0.5;" width="265" x="14.5" y="1099.5293"/><text fill="#000000" font-family="Courier" font-size="12" lengthAdjust="spacing" textLength="245" x="24.5" y="1120.668">TransactionService.GetByDateRange()</text><rect fill="#FFFFFF" height="33.9688" rx="12.5" ry="12.5" style="stroke:#333333;stroke-width:0.5;" width="223" x="35.5" y="1153.498"/><text fill="#000000" font-family="Courier" font-size="12" lengthAdjust="spacing" textLength="203" x="45.5" y="1174.6367">Group&#160;by&#160;day&#160;&amp;&#160;compute&#160;totals</text><rect fill="#FFFFFF" height="33.9688" rx="12.5" ry="12.5" style="stroke:#333333;stroke-width:0.5;" width="230" x="32" y="1207.4668"/><text fill="#000000" font-family="Courier" font-size="12" lengthAdjust="spacing" textLength="210" x="42" y="1228.6055">Display&#160;per-day&#160;&amp;&#160;grand&#160;totals</text><rect fill="#FFFFFF" height="33.9688" rx="12.5" ry="12.5" style="stroke:#333333;stroke-width:0.5;" width="132" x="299.5" y="1099.5293"/><text fill="#000000" font-family="Courier" font-size="12" lengthAdjust="spacing" textLength="112" x="309.5" y="1120.668">Show&#160;range&#160;error</text><polygon fill="#FFFFFF" points="256.25,1247.4355,268.25,1259.4355,256.25,1271.4355,244.25,1259.4355,256.25,1247.4355" style="stroke:#333333;stroke-width:0.5;"/><rect fill="#FFFFFF" height="33.9688" rx="12.5" ry="12.5" style="stroke:#333333;stroke-width:0.5;" width="104" x="204.25" y="1406.5313"/><text fill="#000000" font-family="Courier" font-size="12" lengthAdjust="spacing" textLength="84" x="214.25" y="1427.6699">&gt;&#160;BackToMenu</text><polygon fill="#FFFFFF" points="221.25,1338.6211,291.25,1338.6211,303.25,1350.6211,291.25,1362.6211,221.25,1362.6211,209.25,1350.6211,221.25,1338.6211" style="stroke:#333333;stroke-width:0.5;"/><text fill="#000000" font-family="sans-serif" font-size="11" lengthAdjust="spacing" textLength="67" x="260.25" y="1373.2559">BackToMenu</text><text fill="#000000" font-family="sans-serif" font-size="11" lengthAdjust="spacing" textLength="27" x="266.25" y="1386.2109">endif</text><text fill="#000000" font-family="sans-serif" font-size="11" lengthAdjust="spacing" textLength="67" x="260.25" y="1399.166">else (Invalid)</text><text fill="#000000" font-family="sans-serif" font-size="11" lengthAdjust="spacing" textLength="123" x="266.25" y="1412.1211">:Show invalid selection;</text><text fill="#000000" font-family="Courier" font-size="11" lengthAdjust="spacing" textLength="70" x="221.25" y="1354.4292">Confirmed?</text><text fill="#000000" font-family="sans-serif" font-size="11" lengthAdjust="spacing" textLength="18" x="303.25" y="1348.3008">yes</text><ellipse cx="343.25" cy="1350.6211" fill="none" rx="11" ry="11" style="stroke:#222222;stroke-width:1.0;"/><ellipse cx="343.25" cy="1350.6211" fill="#222222" rx="6" ry="6" style="stroke:#222222;stroke-width:1.0;"/><polygon fill="#FFFFFF" points="256.25,199.8438,268.25,211.8438,256.25,223.8438,244.25,211.8438,256.25,199.8438" style="stroke:#333333;stroke-width:0.5;"/><polygon fill="#FFFFFF" points="231.75,1460.5,280.75,1460.5,292.75,1472.5,280.75,1484.5,231.75,1484.5,219.75,1472.5,231.75,1460.5" style="stroke:#333333;stroke-width:0.5;"/><text fill="#000000" font-family="Courier" font-size="11" lengthAdjust="spacing" textLength="49" x="231.75" y="1476.3081">Running</text><line style="stroke:#333333;stroke-width:1.0;" x1="256.25" x2="256.25" y1="30" y2="50"/><polygon fill="#333333" points="252.25,40,256.25,50,260.25,40,256.25,44" style="stroke:#333333;stroke-width:1.0;"/><line style="stroke:#333333;stroke-width:1.0;" x1="256.25" x2="256.25" y1="83.9688" y2="103.9688"/><polygon fill="#333333" points="252.25,93.9688,256.25,103.9688,260.25,93.9688,256.25,97.9688" style="stroke:#333333;stroke-width:1.0;"/><line style="stroke:#333333;stroke-width:1.0;" x1="256.25" x2="256.25" y1="277.8125" y2="297.8125"/><polygon fill="#333333" points="252.25,287.8125,256.25,297.8125,260.25,287.8125,256.25,291.8125" style="stroke:#333333;stroke-width:1.0;"/><line style="stroke:#333333;stroke-width:1.0;" x1="140" x2="140" y1="466.9355" y2="486.9355"/><polygon fill="#333333" points="136,476.9355,140,486.9355,144,476.9355,140,480.9355" style="stroke:#333333;stroke-width:1.0;"/><line style="stroke:#333333;stroke-width:1.0;" x1="140" x2="140" y1="520.9043" y2="540.9043"/><polygon fill="#333333" points="136,530.9043,140,540.9043,144,530.9043,140,534.9043" style="stroke:#333333;stroke-width:1.0;"/><line style="stroke:#333333;stroke-width:1.0;" x1="140" x2="140" y1="574.873" y2="594.873"/><polygon fill="#333333" points="136,584.873,140,594.873,144,584.873,140,588.873" style="stroke:#333333;stroke-width:1.0;"/><line style="stroke:#333333;stroke-width:1.0;" x1="223.25" x2="140" y1="410.9668" y2="410.9668"/><line style="stroke:#333333;stroke-width:1.0;" x1="140" x2="140" y1="410.9668" y2="432.9668"/><polygon fill="#333333" points="136,422.9668,140,432.9668,144,422.9668,140,426.9668" style="stroke:#333333;stroke-width:1.0;"/><line style="stroke:#333333;stroke-width:1.0;" x1="289.25" x2="372.5" y1="410.9668" y2="410.9668"/><line style="stroke:#333333;stroke-width:1.0;" x1="372.5" x2="372.5" y1="410.9668" y2="432.9668"/><polygon fill="#333333" points="368.5,422.9668,372.5,432.9668,376.5,422.9668,372.5,426.9668" style="stroke:#333333;stroke-width:1.0;"/><line style="stroke:#333333;stroke-width:1.0;" x1="140" x2="140" y1="628.8418" y2="646.8418"/><line style="stroke:#333333;stroke-width:1.0;" x1="140" x2="244.25" y1="646.8418" y2="646.8418"/><polygon fill="#333333" points="234.25,642.8418,244.25,646.8418,234.25,650.8418,238.25,646.8418" style="stroke:#333333;stroke-width:1.0;"/><line style="stroke:#333333;stroke-width:1.0;" x1="372.5" x2="372.5" y1="466.9355" y2="646.8418"/><line style="stroke:#333333;stroke-width:1.0;" x1="372.5" x2="268.25" y1="646.8418" y2="646.8418"/><polygon fill="#333333" points="278.25,642.8418,268.25,646.8418,278.25,650.8418,274.25,646.8418" style="stroke:#333333;stroke-width:1.0;"/><line style="stroke:#333333;stroke-width:1.0;" x1="256.25" x2="256.25" y1="331.7813" y2="398.9668"/><polygon fill="#333333" points="252.25,388.9668,256.25,398.9668,260.25,388.9668,256.25,392.9668" style="stroke:#333333;stroke-width:1.0;"/><text fill="#000000" font-family="sans-serif" font-size="11" lengthAdjust="spacing" textLength="37" x="260.25" y="353.2363">Choice</text><text fill="#000000" font-family="sans-serif" font-size="11" lengthAdjust="spacing" textLength="157" x="260.25" y="366.1914">if (Add Transaction?) then (1)</text><text fill="#000000" font-family="sans-serif" font-size="11" lengthAdjust="spacing" textLength="204" x="266.25" y="379.1465">:Prompt for type, description, amount;</text><line style="stroke:#333333;stroke-width:1.0;" x1="256.25" x2="256.25" y1="658.8418" y2="726.0273"/><polygon fill="#333333" points="252.25,716.0273,256.25,726.0273,260.25,716.0273,256.25,720.0273" style="stroke:#333333;stroke-width:1.0;"/><text fill="#000000" font-family="sans-serif" font-size="11" lengthAdjust="spacing" textLength="67" x="260.25" y="680.2969">BackToMenu</text><text fill="#000000" font-family="sans-serif" font-size="11" lengthAdjust="spacing" textLength="198" x="260.25" y="693.252">elseif (Remove Transaction?) then (2)</text><text fill="#000000" font-family="sans-serif" font-size="11" lengthAdjust="spacing" textLength="90" x="266.25" y="706.207">:Prompt for date;</text><line style="stroke:#333333;stroke-width:1.0;" x1="159.25" x2="159.25" y1="847.9648" y2="880.4063"/><polygon fill="#333333" points="155.25,870.4063,159.25,880.4063,163.25,870.4063,159.25,874.4063" style="stroke:#333333;stroke-width:1.0;"/><line style="stroke:#333333;stroke-width:1.0;" x1="159.25" x2="159.25" y1="914.375" y2="934.375"/><polygon fill="#333333" points="155.25,924.375,159.25,934.375,163.25,924.375,159.25,928.375" style="stroke:#333333;stroke-width:1.0;"/><line style="stroke:#333333;stroke-width:1.0;" x1="209.25" x2="159.25" y1="791.9961" y2="791.9961"/><line style="stroke:#333333;stroke-width:1.0;" x1="159.25" x2="159.25" y1="791.9961" y2="813.9961"/><polygon fill="#333333" points="155.25,803.9961,159.25,813.9961,163.25,803.9961,159.25,807.9961" style="stroke:#333333;stroke-width:1.0;"/><line style="stroke:#333333;stroke-width:1.0;" x1="303.25" x2="353.25" y1="791.9961" y2="791.9961"/><line style="stroke:#333333;stroke-width:1.0;" x1="353.25" x2="353.25" y1="791.9961" y2="813.9961"/><polygon fill="#333333" points="349.25,803.9961,353.25,813.9961,357.25,803.9961,353.25,807.9961" style="stroke:#333333;stroke-width:1.0;"/><line style="stroke:#333333;stroke-width:1.0;" x1="159.25" x2="159.25" y1="968.3438" y2="986.3438"/><line style="stroke:#333333;stroke-width:1.0;" x1="159.25" x2="244.25" y1="986.3438" y2="986.3438"/><polygon fill="#333333" points="234.25,982.3438,244.25,986.3438,234.25,990.3438,238.25,986.3438" style="stroke:#333333;stroke-width:1.0;"/><line style="stroke:#333333;stroke-width:1.0;" x1="353.25" x2="353.25" y1="847.9648" y2="986.3438"/><line style="stroke:#333333;stroke-width:1.0;" x1="353.25" x2="268.25" y1="986.3438" y2="986.3438"/><polygon fill="#333333" points="278.25,982.3438,268.25,986.3438,278.25,990.3438,274.25,986.3438" style="stroke:#333333;stroke-width:1.0;"/><line style="stroke:#333333;stroke-width:1.0;" x1="256.25" x2="256.25" y1="759.9961" y2="779.9961"/><polygon fill="#333333" points="252.25,769.9961,256.25,779.9961,260.25,769.9961,256.25,773.9961" style="stroke:#333333;stroke-width:1.0;"/><line style="stroke:#333333;stroke-width:1.0;" x1="147" x2="147" y1="1133.498" y2="1153.498"/><polygon fill="#333333" points="143,1143.498,147,1153.498,151,1143.498,147,1147.498" style="stroke:#333333;stroke-width:1.0;"/><line style="stroke:#333333;stroke-width:1.0;" x1="147" x2="147" y1="1187.4668" y2="1207.4668"/><polygon fill="#333333" points="143,1197.4668,147,1207.4668,151,1197.4668,147,1201.4668" style="stroke:#333333;stroke-width:1.0;"/><line style="stroke:#333333;stroke-width:1.0;" x1="202.25" x2="147" y1="1077.5293" y2="1077.5293"/><line style="stroke:#333333;stroke-width:1.0;" x1="147" x2="147" y1="1077.5293" y2="1099.5293"/><polygon fill="#333333" points="143,1089.5293,147,1099.5293,151,1089.5293,147,1093.5293" style="stroke:#333333;stroke-width:1.0;"/><line style="stroke:#333333;stroke-width:1.0;" x1="310.25" x2="365.5" y1="1077.5293" y2="1077.5293"/><line style="stroke:#333333;stroke-width:1.0;" x1="365.5" x2="365.5" y1="1077.5293" y2="1099.5293"/><polygon fill="#333333" points="361.5,1089.5293,365.5,1099.5293,369.5,1089.5293,365.5,1093.5293" style="stroke:#333333;stroke-width:1.0;"/><line style="stroke:#333333;stroke-width:1.0;" x1="147" x2="147" y1="1241.4355" y2="1259.4355"/><line style="stroke:#333333;stroke-width:1.0;" x1="147" x2="244.25" y1="1259.4355" y2="1259.4355"/><polygon fill="#333333" points="234.25,1255.4355,244.25,1259.4355,234.25,1263.4355,238.25,1259.4355" style="stroke:#333333;stroke-width:1.0;"/><line style="stroke:#333333;stroke-width:1.0;" x1="365.5" x2="365.5" y1="1133.498" y2="1259.4355"/><line style="stroke:#333333;stroke-width:1.0;" x1="365.5" x2="268.25" y1="1259.4355" y2="1259.4355"/><polygon fill="#333333" points="278.25,1255.4355,268.25,1259.4355,278.25,1263.4355,274.25,1259.4355" style="stroke:#333333;stroke-width:1.0;"/><line style="stroke:#333333;stroke-width:1.0;" x1="256.25" x2="256.25" y1="998.3438" y2="1065.5293"/><polygon fill="#333333" points="252.25,1055.5293,256.25,1065.5293,260.25,1055.5293,256.25,1059.5293" style="stroke:#333333;stroke-width:1.0;"/><text fill="#000000" font-family="sans-serif" font-size="11" lengthAdjust="spacing" textLength="67" x="260.25" y="1019.7988">BackToMenu</text><text fill="#000000" font-family="sans-serif" font-size="11" lengthAdjust="spacing" textLength="176" x="260.25" y="1032.7539">elseif (Generate Report?) then (3)</text><text fill="#000000" font-family="sans-serif" font-size="11" lengthAdjust="spacing" textLength="158" x="266.25" y="1045.709">:Prompt for start &amp; end dates;</text><line style="stroke:#333333;stroke-width:1.0;" x1="256.25" x2="256.25" y1="1362.6211" y2="1406.5313"/><polygon fill="#333333" points="252.25,1396.5313,256.25,1406.5313,260.25,1396.5313,256.25,1400.5313" style="stroke:#333333;stroke-width:1.0;"/><line style="stroke:#333333;stroke-width:1.0;" x1="303.25" x2="332.25" y1="1350.6211" y2="1350.6211"/><polygon fill="#333333" points="322.25,1346.6211,332.25,1350.6211,322.25,1354.6211,326.25,1350.6211" style="stroke:#333333;stroke-width:1.0;"/><line style="stroke:#333333;stroke-width:1.0;" x1="256.25" x2="256.25" y1="1440.5" y2="1460.5"/><polygon fill="#333333" points="252.25,1450.5,256.25,1460.5,260.25,1450.5,256.25,1454.5" style="stroke:#333333;stroke-width:1.0;"/><line style="stroke:#333333;stroke-width:1.0;" x1="256.25" x2="256.25" y1="1271.4355" y2="1338.6211"/><polygon fill="#333333" points="252.25,1328.6211,256.25,1338.6211,260.25,1328.6211,256.25,1332.6211" style="stroke:#333333;stroke-width:1.0;"/><text fill="#000000" font-family="sans-serif" font-size="11" lengthAdjust="spacing" textLength="67" x="260.25" y="1292.8906">BackToMenu</text><text fill="#000000" font-family="sans-serif" font-size="11" lengthAdjust="spacing" textLength="109" x="260.25" y="1305.8457">elseif (Exit?) then (4)</text><text fill="#000000" font-family="sans-serif" font-size="11" lengthAdjust="spacing" textLength="73" x="266.25" y="1318.8008">:Confirm exit;</text><line style="stroke:#333333;stroke-width:1.0;" x1="256.25" x2="256.25" y1="223.8438" y2="243.8438"/><polygon fill="#333333" points="252.25,233.8438,256.25,243.8438,260.25,233.8438,256.25,237.8438" style="stroke:#333333;stroke-width:1.0;"/><line style="stroke:#333333;stroke-width:1.0;" x1="292.75" x2="482.25" y1="1472.5" y2="1472.5"/><polygon fill="#333333" points="478.25,860.4063,482.25,850.4063,486.25,860.4063,482.25,856.4063" style="stroke:#333333;stroke-width:1.0;"/><line style="stroke:#333333;stroke-width:1.0;" x1="482.25" x2="482.25" y1="211.8438" y2="1472.5"/><line style="stroke:#333333;stroke-width:1.0;" x1="482.25" x2="268.25" y1="211.8438" y2="211.8438"/><polygon fill="#333333" points="278.25,207.8438,268.25,211.8438,278.25,215.8438,274.25,211.8438" style="stroke:#333333;stroke-width:1.0;"/><line style="stroke:#333333;stroke-width:1.0;" x1="256.25" x2="256.25" y1="179.8438" y2="199.8438"/><polygon fill="#333333" points="252.25,189.8438,256.25,199.8438,260.25,189.8438,256.25,193.8438" style="stroke:#333333;stroke-width:1.0;"/><!--SRC=[ZLHDRzim3BtxLn0OC3X0Fx1rfnJOqAPT460hXgJRgHVLeXsXjYXGSZ9ls7yV9IVEHtEeJpP9FRxtICk_6EiKgmRyKcbQ6rj1gMgFcHyogWXcPK87VpE0MrMyL4ojrHEgYU5TcPwO8TR8c-XLUYHwmqphu-1Nik51DGWJQjaWP_yo7nI7R3op9XXLcpy8sZ0MWIJl8TSggCipgAdobwFhR3nXL0718wzCWVx9BgHILRZe0q_saPNraJdP8VQDgWfvymcvRvzzmUOP1P3H2Q3WrgWO2hAUQeJtuWgjeK7RNaCsdgFIq4fFA9Oa418x_moJz9wP4l8RhM6lyPSHX2LQo3-CHFJu1rFZ0fHYHUWSde76sD_5qZDGZPWQ118WGlqI4_G0qA6F40BoMjU5TCr5GaeVsd1nunnQlNTcABnVeGtxP0K5DPHYkauafERGh-Wzo27kKXvbII2tjE6rY4Qj8caLqG1bxjmNMctYVeXLSNaUwRlOcSNZKUSS6rhXITS-7hicq9WWXPbC8kpE-CDyceNj92XxUiB4FSpfpzcTp5acBjARhV8JBlT4nJ_O4-pRGhRFNvRArATSUQ1WoWuiMUp9lC6HALhakDnpTCHXe7zrR4VwPOIxm2NfVj0-LxR2VXflMw4fXjlkJZ3IoPt8gVpf3fuxmU-IIurhXLcW87V4jkZEU5TBtY6VztMLTD3xLQUMXHF9j-x9_M-pi-9JicBIpmnGKeFqJH1F2FU1t2ikXzssBFgQcKqMfcQ9ika3SktKcFnBROy89u3-Fe7rqiWraizRQ-Lc7Vq7]--></g></svg>