<?xml version="1.0" encoding="us-ascii" standalone="no"?><svg xmlns="http://www.w3.org/2000/svg" xmlns:xlink="http://www.w3.org/1999/xlink" contentStyleType="text/css" height="560px" preserveAspectRatio="none" style="width:857px;height:560px;background:#FFFFFF;" version="1.1" viewBox="0 0 857 560" width="857px" zoomAndPan="magnify"><defs/><g><rect fill="#FFFFFF" height="231.1738" style="stroke:#181818;stroke-width:1.0;" width="10" x="379.5" y="200.7305"/><rect fill="#FFFFFF" height="29.3105" style="stroke:#181818;stroke-width:1.0;" width="10" x="609.5" y="230.041"/><rect fill="#FFFFFF" height="100.9316" style="stroke:#181818;stroke-width:1.0;" width="10" x="741.5" y="330.9727"/><line style="stroke:#181818;stroke-width:0.5;stroke-dasharray:5.0,5.0;" x1="23" x2="23" y1="81.4883" y2="479.2148"/><line style="stroke:#181818;stroke-width:0.5;stroke-dasharray:5.0,5.0;" x1="256.5" x2="256.5" y1="81.4883" y2="479.2148"/><line style="stroke:#181818;stroke-width:0.5;stroke-dasharray:5.0,5.0;" x1="384.5" x2="384.5" y1="81.4883" y2="479.2148"/><line style="stroke:#181818;stroke-width:0.5;stroke-dasharray:5.0,5.0;" x1="614.5" x2="614.5" y1="81.4883" y2="479.2148"/><line style="stroke:#181818;stroke-width:0.5;stroke-dasharray:5.0,5.0;" x1="746.5" x2="746.5" y1="81.4883" y2="479.2148"/><text fill="#000000" font-family="sans-serif" font-size="14" lengthAdjust="spacing" textLength="31" x="5" y="78.5352">User</text><ellipse cx="23.5" cy="13.5" fill="#E2E2F0" rx="8" ry="8" style="stroke:#181818;stroke-width:0.5;"/><path d="M23.5,21.5 L23.5,48.5 M10.5,29.5 L36.5,29.5 M23.5,48.5 L10.5,63.5 M23.5,48.5 L36.5,63.5 " fill="none" style="stroke:#181818;stroke-width:0.5;"/><text fill="#000000" font-family="sans-serif" font-size="14" lengthAdjust="spacing" textLength="31" x="5" y="491.75">User</text><ellipse cx="23.5" cy="503.2031" fill="#E2E2F0" rx="8" ry="8" style="stroke:#181818;stroke-width:0.5;"/><path d="M23.5,511.2031 L23.5,538.2031 M10.5,519.2031 L36.5,519.2031 M23.5,538.2031 L10.5,553.2031 M23.5,538.2031 L36.5,553.2031 " fill="none" style="stroke:#181818;stroke-width:0.5;"/><rect fill="#E2E2F0" height="30.2969" rx="2.5" ry="2.5" style="stroke:#181818;stroke-width:0.5;" width="70" x="221.5" y="50.1914"/><text fill="#000000" font-family="Courier" font-size="14" lengthAdjust="spacing" textLength="56" x="228.5" y="70.1865">Program</text><rect fill="#E2E2F0" height="30.2969" rx="2.5" ry="2.5" style="stroke:#181818;stroke-width:0.5;" width="70" x="221.5" y="478.2148"/><text fill="#000000" font-family="Courier" font-size="14" lengthAdjust="spacing" textLength="56" x="228.5" y="498.21">Program</text><rect fill="#E2E2F0" height="30.2969" rx="2.5" ry="2.5" style="stroke:#181818;stroke-width:0.5;" width="158" x="305.5" y="50.1914"/><text fill="#000000" font-family="Courier" font-size="14" lengthAdjust="spacing" textLength="144" x="312.5" y="70.1865">TransactionService</text><rect fill="#E2E2F0" height="30.2969" rx="2.5" ry="2.5" style="stroke:#181818;stroke-width:0.5;" width="158" x="305.5" y="478.2148"/><text fill="#000000" font-family="Courier" font-size="14" lengthAdjust="spacing" textLength="144" x="312.5" y="498.21">TransactionService</text><rect fill="#E2E2F0" height="30.2969" rx="2.5" ry="2.5" style="stroke:#181818;stroke-width:0.5;" width="126" x="551.5" y="50.1914"/><text fill="#000000" font-family="Courier" font-size="14" lengthAdjust="spacing" textLength="112" x="558.5" y="70.1865">StorageService</text><rect fill="#E2E2F0" height="30.2969" rx="2.5" ry="2.5" style="stroke:#181818;stroke-width:0.5;" width="126" x="551.5" y="478.2148"/><text fill="#000000" font-family="Courier" font-size="14" lengthAdjust="spacing" textLength="112" x="558.5" y="498.21">StorageService</text><rect fill="#E2E2F0" height="30.2969" rx="2.5" ry="2.5" style="stroke:#181818;stroke-width:0.5;" width="118" x="687.5" y="50.1914"/><text fill="#000000" font-family="Courier" font-size="14" lengthAdjust="spacing" textLength="104" x="694.5" y="70.1865">LoggerService</text><rect fill="#E2E2F0" height="30.2969" rx="2.5" ry="2.5" style="stroke:#181818;stroke-width:0.5;" width="118" x="687.5" y="478.2148"/><text fill="#000000" font-family="Courier" font-size="14" lengthAdjust="spacing" textLength="104" x="694.5" y="498.21">LoggerService</text><rect fill="#FFFFFF" height="231.1738" style="stroke:#181818;stroke-width:1.0;" width="10" x="379.5" y="200.7305"/><rect fill="#FFFFFF" height="29.3105" style="stroke:#181818;stroke-width:1.0;" width="10" x="609.5" y="230.041"/><rect fill="#FFFFFF" height="100.9316" style="stroke:#181818;stroke-width:1.0;" width="10" x="741.5" y="330.9727"/><polygon fill="#333333" points="244.5,108.7988,254.5,112.7988,244.5,116.7988,248.5,112.7988" style="stroke:#333333;stroke-width:1.0;"/><line style="stroke:#333333;stroke-width:1.0;" x1="23.5" x2="250.5" y1="112.7988" y2="112.7988"/><text fill="#000000" font-family="sans-serif" font-size="13" lengthAdjust="spacing" textLength="154" x="30.5" y="108.0566">Select "Add Transaction"</text><polygon fill="#333333" points="34.5,138.1094,24.5,142.1094,34.5,146.1094,30.5,142.1094" style="stroke:#333333;stroke-width:1.0;"/><line style="stroke:#333333;stroke-width:1.0;" x1="28.5" x2="255.5" y1="142.1094" y2="142.1094"/><text fill="#000000" font-family="sans-serif" font-size="13" lengthAdjust="spacing" textLength="209" x="40.5" y="137.3672">Prompt type/description/amount</text><polygon fill="#333333" points="244.5,167.4199,254.5,171.4199,244.5,175.4199,248.5,171.4199" style="stroke:#333333;stroke-width:1.0;"/><line style="stroke:#333333;stroke-width:1.0;stroke-dasharray:2.0,2.0;" x1="23.5" x2="250.5" y1="171.4199" y2="171.4199"/><text fill="#000000" font-family="sans-serif" font-size="13" lengthAdjust="spacing" textLength="90" x="30.5" y="166.6777">Provide inputs</text><polygon fill="#333333" points="367.5,196.7305,377.5,200.7305,367.5,204.7305,371.5,200.7305" style="stroke:#333333;stroke-width:1.0;"/><line style="stroke:#333333;stroke-width:1.0;" x1="256.5" x2="373.5" y1="200.7305" y2="200.7305"/><text fill="#000000" font-family="sans-serif" font-size="13" lengthAdjust="spacing" textLength="104" x="263.5" y="195.9883">Add(transaction)</text><polygon fill="#333333" points="597.5,226.041,607.5,230.041,597.5,234.041,601.5,230.041" style="stroke:#333333;stroke-width:1.0;"/><line style="stroke:#333333;stroke-width:1.0;" x1="389.5" x2="603.5" y1="230.041" y2="230.041"/><text fill="#000000" font-family="sans-serif" font-size="13" lengthAdjust="spacing" textLength="201" x="396.5" y="225.2988">AppendTransaction(transaction)</text><polygon fill="#333333" points="400.5,255.3516,390.5,259.3516,400.5,263.3516,396.5,259.3516" style="stroke:#333333;stroke-width:1.0;"/><line style="stroke:#333333;stroke-width:1.0;stroke-dasharray:2.0,2.0;" x1="394.5" x2="613.5" y1="259.3516" y2="259.3516"/><text fill="#000000" font-family="sans-serif" font-size="13" lengthAdjust="spacing" textLength="58" x="406.5" y="254.6094">persisted</text><line style="stroke:#333333;stroke-width:1.0;" x1="389.5" x2="431.5" y1="288.6621" y2="288.6621"/><line style="stroke:#333333;stroke-width:1.0;" x1="431.5" x2="431.5" y1="288.6621" y2="301.6621"/><line style="stroke:#333333;stroke-width:1.0;" x1="390.5" x2="431.5" y1="301.6621" y2="301.6621"/><polygon fill="#333333" points="400.5,297.6621,390.5,301.6621,400.5,305.6621,396.5,301.6621" style="stroke:#333333;stroke-width:1.0;"/><text fill="#000000" font-family="sans-serif" font-size="13" lengthAdjust="spacing" textLength="140" x="396.5" y="283.9199">OnTransactionAdded()</text><polygon fill="#333333" points="729.5,326.9727,739.5,330.9727,729.5,334.9727,733.5,330.9727" style="stroke:#333333;stroke-width:1.0;"/><line style="stroke:#333333;stroke-width:1.0;" x1="389.5" x2="735.5" y1="330.9727" y2="330.9727"/><text fill="#000000" font-family="sans-serif" font-size="13" lengthAdjust="spacing" textLength="152" x="396.5" y="326.2305">event TransactionAdded</text><line style="stroke:#333333;stroke-width:1.0;" x1="751.5" x2="793.5" y1="360.2832" y2="360.2832"/><line style="stroke:#333333;stroke-width:1.0;" x1="793.5" x2="793.5" y1="360.2832" y2="373.2832"/><line style="stroke:#333333;stroke-width:1.0;" x1="752.5" x2="793.5" y1="373.2832" y2="373.2832"/><polygon fill="#333333" points="762.5,369.2832,752.5,373.2832,762.5,377.2832,758.5,373.2832" style="stroke:#333333;stroke-width:1.0;"/><text fill="#000000" font-family="sans-serif" font-size="13" lengthAdjust="spacing" textLength="92" x="758.5" y="355.541">Write log entry</text><polygon fill="#333333" points="400.5,398.5938,390.5,402.5938,400.5,406.5938,396.5,402.5938" style="stroke:#333333;stroke-width:1.0;"/><line style="stroke:#333333;stroke-width:1.0;stroke-dasharray:2.0,2.0;" x1="394.5" x2="740.5" y1="402.5938" y2="402.5938"/><text fill="#000000" font-family="sans-serif" font-size="13" lengthAdjust="spacing" textLength="46" x="406.5" y="397.8516">(return)</text><polygon fill="#333333" points="267.5,427.9043,257.5,431.9043,267.5,435.9043,263.5,431.9043" style="stroke:#333333;stroke-width:1.0;"/><line style="stroke:#333333;stroke-width:1.0;stroke-dasharray:2.0,2.0;" x1="261.5" x2="383.5" y1="431.9043" y2="431.9043"/><text fill="#000000" font-family="sans-serif" font-size="13" lengthAdjust="spacing" textLength="50" x="273.5" y="427.1621">success</text><polygon fill="#333333" points="34.5,457.2148,24.5,461.2148,34.5,465.2148,30.5,461.2148" style="stroke:#333333;stroke-width:1.0;"/><line style="stroke:#333333;stroke-width:1.0;" x1="28.5" x2="255.5" y1="461.2148" y2="461.2148"/><text fill="#000000" font-family="sans-serif" font-size="13" lengthAdjust="spacing" textLength="146" x="40.5" y="456.4727">Show success message</text><!--SRC=[TP8nQyCm48Lt_ueZNPB1PEWMIY44EfKsu9REGhewehQadiuE-VSzXnfRYUp12DrxtvsU57-i2ufK2_6aZ3zRLyEtQY8MSQhWRuTEuvx8dm- -yGGFZzSl8pegOgjjK8vVlECtrI8SV4SMgIYKPZ5_Hbc7IGT7yhKmahqFKYwAtdfN8VLMOrAk1AHgp9LUVLqZZPLYw0RbyzW4Tb1XWvfXjJTctcPLZ19HNrsxmTG61hu4t1gCccmOf5lL-ixnFpk1owgt1a5owJZEaVSd4hdCiEQfi1aYihrYp0MG8GWtZM9WXe3EpCGB7MuolE6KIoC7f6WZeoaCBh7oasPnxswsBN6WMMyM_CdDYXLxJ5_ArJuTC7q9gJk3-o8hfiRN85Ywt1gM3h0cv8uasF6kdyeohuoTrXZZFBTqn5aXS_ttpxCw-VD8XLP-SWL_]--></g></svg>