<?xml version="1.0" encoding="us-ascii" standalone="no"?><svg xmlns="http://www.w3.org/2000/svg" xmlns:xlink="http://www.w3.org/1999/xlink" contentStyleType="text/css" height="1124px" preserveAspectRatio="none" style="width:786px;height:1124px;background:#FFFFFF;" version="1.1" viewBox="0 0 786 1124" width="786px" zoomAndPan="magnify"><defs/><g><!--class Program--><g id="elem_Program"><rect codeLine="5" fill="#F1F1F1" height="122.3828" id="Program" rx="2.5" ry="2.5" style="stroke:#181818;stroke-width:0.5;" width="168" x="287.5" y="7"/><ellipse cx="334.25" cy="27.2148" fill="#ADD1B2" rx="11" ry="11" style="stroke:#181818;stroke-width:1.0;"/><path d="M336.7231,33.3579 Q336.1421,33.6567 335.5029,33.8062 Q334.8638,33.9556 334.1582,33.9556 Q331.6514,33.9556 330.3315,32.3037 Q329.0117,30.6519 329.0117,27.5308 Q329.0117,24.4014 330.3315,22.7495 Q331.6514,21.0977 334.1582,21.0977 Q334.8638,21.0977 335.5112,21.2471 Q336.1587,21.3965 336.7231,21.6953 L336.7231,24.418 Q336.0923,23.8369 335.4988,23.5671 Q334.9053,23.2974 334.2744,23.2974 Q332.9297,23.2974 332.2449,24.364 Q331.5601,25.4307 331.5601,27.5308 Q331.5601,29.6226 332.2449,30.6892 Q332.9297,31.7559 334.2744,31.7559 Q334.9053,31.7559 335.4988,31.4861 Q336.0923,31.2163 336.7231,30.6353 Z " fill="#000000"/><text fill="#000000" font-family="sans-serif" font-size="12" font-style="italic" lengthAdjust="spacing" textLength="70" x="352.75" y="23.6016">&#171;entrypoint&#187;</text><text fill="#000000" font-family="Courier" font-size="14" lengthAdjust="spacing" textLength="56" x="359.75" y="39.1279">Program</text><line style="stroke:#181818;stroke-width:0.5;" x1="288.5" x2="454.5" y1="47.4297" y2="47.4297"/><text fill="#000000" font-family="sans-serif" font-size="14" lengthAdjust="spacing" textLength="79" x="293.5" y="64.9648">+Main loop</text><line style="stroke:#181818;stroke-width:0.5;" x1="288.5" x2="454.5" y1="71.918" y2="71.918"/><text fill="#000000" font-family="sans-serif" font-size="14" lengthAdjust="spacing" textLength="130" x="293.5" y="89.4531">+AddTransaction()</text><text fill="#000000" font-family="sans-serif" font-size="14" lengthAdjust="spacing" textLength="156" x="293.5" y="105.9414">+RemoveTransaction()</text><text fill="#000000" font-family="sans-serif" font-size="14" lengthAdjust="spacing" textLength="129" x="293.5" y="122.4297">+GenerateReport()</text></g><!--class TransactionService--><g id="elem_TransactionService"><rect codeLine="12" fill="#F1F1F1" height="130.4414" id="TransactionService" rx="2.5" ry="2.5" style="stroke:#181818;stroke-width:0.5;" width="283" x="175" y="380.84"/><ellipse cx="240.25" cy="396.84" fill="#ADD1B2" rx="11" ry="11" style="stroke:#181818;stroke-width:1.0;"/><path d="M242.7231,402.9831 Q242.1421,403.2819 241.5029,403.4313 Q240.8638,403.5807 240.1582,403.5807 Q237.6514,403.5807 236.3315,401.9289 Q235.0117,400.277 235.0117,397.1559 Q235.0117,394.0265 236.3315,392.3747 Q237.6514,390.7228 240.1582,390.7228 Q240.8638,390.7228 241.5112,390.8722 Q242.1587,391.0216 242.7231,391.3205 L242.7231,394.0431 Q242.0923,393.4621 241.4988,393.1923 Q240.9053,392.9225 240.2744,392.9225 Q238.9297,392.9225 238.2449,393.9892 Q237.5601,395.0558 237.5601,397.1559 Q237.5601,399.2477 238.2449,400.3144 Q238.9297,401.381 240.2744,401.381 Q240.9053,401.381 241.4988,401.1112 Q242.0923,400.8415 242.7231,400.2604 Z " fill="#000000"/><text fill="#000000" font-family="Courier" font-size="14" lengthAdjust="spacing" textLength="144" x="260.75" y="401.6867">TransactionService</text><line style="stroke:#181818;stroke-width:0.5;" x1="176" x2="457" y1="412.84" y2="412.84"/><text fill="#000000" font-family="sans-serif" font-size="14" lengthAdjust="spacing" textLength="220" x="181" y="430.3752">-StorageService _storageService</text><text fill="#000000" font-family="sans-serif" font-size="14" lengthAdjust="spacing" textLength="178" x="181" y="446.8634">+event TransactionAdded</text><line style="stroke:#181818;stroke-width:0.5;" x1="176" x2="457" y1="453.8166" y2="453.8166"/><text fill="#000000" font-family="sans-serif" font-size="14" lengthAdjust="spacing" textLength="130" x="181" y="471.3517">+Add(Transaction)</text><text fill="#000000" font-family="sans-serif" font-size="14" lengthAdjust="spacing" textLength="180" x="181" y="487.84">+Remove(Guid, DateTime)</text><text fill="#000000" font-family="sans-serif" font-size="14" lengthAdjust="spacing" textLength="271" x="181" y="504.3283">+GetByDateRange(DateTime, DateTime)</text></g><!--class StorageService--><g id="elem_StorageService"><rect codeLine="20" fill="#F1F1F1" height="163.418" id="StorageService" rx="2.5" ry="2.5" style="stroke:#181818;stroke-width:0.5;" width="313" x="7" y="588.29"/><ellipse cx="103.25" cy="604.29" fill="#ADD1B2" rx="11" ry="11" style="stroke:#181818;stroke-width:1.0;"/><path d="M105.7231,610.4331 Q105.1421,610.7319 104.5029,610.8813 Q103.8638,611.0307 103.1582,611.0307 Q100.6514,611.0307 99.3315,609.3789 Q98.0117,607.727 98.0117,604.6059 Q98.0117,601.4765 99.3315,599.8247 Q100.6514,598.1728 103.1582,598.1728 Q103.8638,598.1728 104.5112,598.3222 Q105.1587,598.4716 105.7231,598.7705 L105.7231,601.4931 Q105.0923,600.9121 104.4988,600.6423 Q103.9053,600.3725 103.2744,600.3725 Q101.9297,600.3725 101.2449,601.4392 Q100.5601,602.5058 100.5601,604.6059 Q100.5601,606.6977 101.2449,607.7644 Q101.9297,608.831 103.2744,608.831 Q103.9053,608.831 104.4988,608.5612 Q105.0923,608.2915 105.7231,607.7104 Z " fill="#000000"/><text fill="#000000" font-family="Courier" font-size="14" lengthAdjust="spacing" textLength="112" x="123.75" y="609.1367">StorageService</text><line style="stroke:#181818;stroke-width:0.5;" x1="8" x2="319" y1="620.29" y2="620.29"/><text fill="#000000" font-family="sans-serif" font-size="14" lengthAdjust="spacing" textLength="151" x="13" y="637.8252">-string _dataDirectory</text><line style="stroke:#181818;stroke-width:0.5;" x1="8" x2="319" y1="644.7783" y2="644.7783"/><text fill="#000000" font-family="sans-serif" font-size="14" lengthAdjust="spacing" textLength="166" x="13" y="662.3134">+ReadByDate(DateTime)</text><text fill="#000000" font-family="sans-serif" font-size="14" lengthAdjust="spacing" textLength="301" x="13" y="678.8017">+WriteByDate(DateTime, List&lt;Transaction&gt;)</text><text fill="#000000" font-family="sans-serif" font-size="14" lengthAdjust="spacing" textLength="237" x="13" y="695.29">+AppendTransaction(Transaction)</text><text fill="#000000" font-family="sans-serif" font-size="14" lengthAdjust="spacing" textLength="250" x="13" y="711.7783">+DeleteTransaction(Guid, DateTime)</text><text fill="#000000" font-family="sans-serif" font-size="14" lengthAdjust="spacing" textLength="269" x="13" y="728.2666">+GetFilesInRange(DateTime, DateTime)</text><text fill="#000000" font-family="sans-serif" font-size="14" lengthAdjust="spacing" textLength="155" x="13" y="744.7548">+ReadFromFile(string)</text></g><!--class LoggerService--><g id="elem_LoggerService"><rect codeLine="30" fill="#F1F1F1" height="97.4648" id="LoggerService" rx="2.5" ry="2.5" style="stroke:#181818;stroke-width:0.5;" width="426" x="353.5" y="206.38"/><ellipse cx="510.25" cy="222.38" fill="#ADD1B2" rx="11" ry="11" style="stroke:#181818;stroke-width:1.0;"/><path d="M512.7231,228.5231 Q512.1421,228.8219 511.5029,228.9713 Q510.8638,229.1207 510.1582,229.1207 Q507.6514,229.1207 506.3315,227.4689 Q505.0117,225.817 505.0117,222.6959 Q505.0117,219.5665 506.3315,217.9147 Q507.6514,216.2628 510.1582,216.2628 Q510.8638,216.2628 511.5112,216.4122 Q512.1587,216.5616 512.7231,216.8605 L512.7231,219.5831 Q512.0923,219.0021 511.4988,218.7323 Q510.9053,218.4625 510.2744,218.4625 Q508.9297,218.4625 508.2449,219.5292 Q507.5601,220.5958 507.5601,222.6959 Q507.5601,224.7877 508.2449,225.8544 Q508.9297,226.921 510.2744,226.921 Q510.9053,226.921 511.4988,226.6512 Q512.0923,226.3815 512.7231,225.8004 Z " fill="#000000"/><text fill="#000000" font-family="Courier" font-size="14" lengthAdjust="spacing" textLength="104" x="530.75" y="227.2267">LoggerService</text><line style="stroke:#181818;stroke-width:0.5;" x1="354.5" x2="778.5" y1="238.38" y2="238.38"/><text fill="#000000" font-family="sans-serif" font-size="14" lengthAdjust="spacing" textLength="135" x="359.5" y="255.9152">-string _logFilePath</text><line style="stroke:#181818;stroke-width:0.5;" x1="354.5" x2="778.5" y1="262.8683" y2="262.8683"/><text fill="#000000" font-family="sans-serif" font-size="14" lengthAdjust="spacing" textLength="217" x="359.5" y="280.4034">+Subscribe(TransactionService)</text><text fill="#000000" font-family="sans-serif" font-size="14" lengthAdjust="spacing" textLength="414" x="359.5" y="296.8917">-OnTransactionAdded(sender, TransactionAddedEventArgs)</text></g><!--class TransactionAddedEventArgs--><g id="elem_TransactionAddedEventArgs"><rect codeLine="36" fill="#F1F1F1" height="64.4883" id="TransactionAddedEventArgs" rx="2.5" ry="2.5" style="stroke:#181818;stroke-width:0.5;" width="232" x="354.5" y="637.75"/><ellipse cx="369.5" cy="653.75" fill="#ADD1B2" rx="11" ry="11" style="stroke:#181818;stroke-width:1.0;"/><path d="M371.9731,659.8931 Q371.3921,660.1919 370.7529,660.3413 Q370.1138,660.4907 369.4082,660.4907 Q366.9014,660.4907 365.5815,658.8389 Q364.2617,657.187 364.2617,654.0659 Q364.2617,650.9365 365.5815,649.2847 Q366.9014,647.6328 369.4082,647.6328 Q370.1138,647.6328 370.7612,647.7822 Q371.4087,647.9316 371.9731,648.2305 L371.9731,650.9531 Q371.3423,650.3721 370.7488,650.1023 Q370.1553,649.8325 369.5244,649.8325 Q368.1797,649.8325 367.4949,650.8992 Q366.8101,651.9658 366.8101,654.0659 Q366.8101,656.1577 367.4949,657.2244 Q368.1797,658.291 369.5244,658.291 Q370.1553,658.291 370.7488,658.0212 Q371.3423,657.7515 371.9731,657.1704 Z " fill="#000000"/><text fill="#000000" font-family="Courier" font-size="14" lengthAdjust="spacing" textLength="200" x="383.5" y="658.5967">TransactionAddedEventArgs</text><line style="stroke:#181818;stroke-width:0.5;" x1="355.5" x2="585.5" y1="669.75" y2="669.75"/><text fill="#000000" font-family="sans-serif" font-size="14" lengthAdjust="spacing" textLength="177" x="360.5" y="687.2852">+Transaction Transaction</text><line style="stroke:#181818;stroke-width:0.5;" x1="355.5" x2="585.5" y1="694.2383" y2="694.2383"/></g><!--class Transaction--><g id="elem_Transaction"><rect codeLine="40" fill="#F1F1F1" height="146.9297" id="Transaction" rx="2.5" ry="2.5" style="stroke:#181818;stroke-width:0.5;" width="174" x="229.5" y="828.7"/><ellipse cx="268.8" cy="844.7" fill="#ADD1B2" rx="11" ry="11" style="stroke:#181818;stroke-width:1.0;"/><path d="M271.2731,850.8431 Q270.6921,851.1419 270.0529,851.2913 Q269.4138,851.4407 268.7082,851.4407 Q266.2014,851.4407 264.8815,849.7889 Q263.5617,848.137 263.5617,845.0159 Q263.5617,841.8865 264.8815,840.2347 Q266.2014,838.5828 268.7082,838.5828 Q269.4138,838.5828 270.0612,838.7322 Q270.7087,838.8816 271.2731,839.1805 L271.2731,841.9031 Q270.6423,841.3221 270.0488,841.0523 Q269.4553,840.7825 268.8244,840.7825 Q267.4797,840.7825 266.7949,841.8492 Q266.1101,842.9158 266.1101,845.0159 Q266.1101,847.1077 266.7949,848.1744 Q267.4797,849.241 268.8244,849.241 Q269.4553,849.241 270.0488,848.9712 Q270.6423,848.7015 271.2731,848.1204 Z " fill="#000000"/><text fill="#000000" font-family="Courier" font-size="14" lengthAdjust="spacing" textLength="88" x="288.2" y="849.5467">Transaction</text><line style="stroke:#181818;stroke-width:0.5;" x1="230.5" x2="402.5" y1="860.7" y2="860.7"/><text fill="#000000" font-family="sans-serif" font-size="14" lengthAdjust="spacing" textLength="60" x="235.5" y="878.2352">+Guid Id</text><text fill="#000000" font-family="sans-serif" font-size="14" lengthAdjust="spacing" textLength="156" x="235.5" y="894.7234">+DateTime Timestamp</text><text fill="#000000" font-family="sans-serif" font-size="14" lengthAdjust="spacing" textLength="111" x="235.5" y="911.2117">+DateTime Date</text><text fill="#000000" font-family="sans-serif" font-size="14" lengthAdjust="spacing" textLength="162" x="235.5" y="927.7">+TransactionType Type</text><text fill="#000000" font-family="sans-serif" font-size="14" lengthAdjust="spacing" textLength="133" x="235.5" y="944.1883">+string Description</text><text fill="#000000" font-family="sans-serif" font-size="14" lengthAdjust="spacing" textLength="123" x="235.5" y="960.6766">+decimal Amount</text><line style="stroke:#181818;stroke-width:0.5;" x1="230.5" x2="402.5" y1="967.6297" y2="967.6297"/></g><!--class TransactionType--><g id="elem_TransactionType"><rect codeLine="49" fill="#F1F1F1" height="80.9766" id="TransactionType" rx="2.5" ry="2.5" style="stroke:#181818;stroke-width:0.5;" width="152" x="240.5" y="1036.63"/><ellipse cx="255.5" cy="1052.63" fill="#EB937F" rx="11" ry="11" style="stroke:#181818;stroke-width:1.0;"/><path d="M259.1143,1059.13 L251.3945,1059.13 L251.3945,1046.7369 L259.1143,1046.7369 L259.1143,1048.8951 L253.8433,1048.8951 L253.8433,1051.568 L258.6162,1051.568 L258.6162,1053.7262 L253.8433,1053.7262 L253.8433,1056.9718 L259.1143,1056.9718 Z " fill="#000000"/><text fill="#000000" font-family="Courier" font-size="14" lengthAdjust="spacing" textLength="120" x="269.5" y="1057.4767">TransactionType</text><line style="stroke:#181818;stroke-width:0.5;" x1="241.5" x2="391.5" y1="1068.63" y2="1068.63"/><text fill="#000000" font-family="sans-serif" font-size="14" lengthAdjust="spacing" textLength="50" x="246.5" y="1086.1652">Income</text><text fill="#000000" font-family="sans-serif" font-size="14" lengthAdjust="spacing" textLength="58" x="246.5" y="1102.6534">Expense</text><line style="stroke:#181818;stroke-width:0.5;" x1="241.5" x2="391.5" y1="1109.6066" y2="1109.6066"/></g><!--link Program to TransactionService--><g id="link_Program_TransactionService"><path codeLine="54" d="M334.54,129.8 C322.46,152.91 310.59,180.04 304.5,206.38 C291.14,264.19 295.5582,325.9567 302.8482,374.4567 " fill="none" id="Program-to-TransactionService" style="stroke:#181818;stroke-width:1.0;"/><polygon fill="#181818" points="303.74,380.39,306.3578,370.8954,302.9968,375.4455,298.4467,372.0845,303.74,380.39" style="stroke:#181818;stroke-width:1.0;"/><text fill="#000000" font-family="sans-serif" font-size="13" lengthAdjust="spacing" textLength="29" x="305.5" y="260.1784">uses</text></g><!--link Program to LoggerService--><g id="link_Program_LoggerService"><path codeLine="55" d="M435.35,129.74 C461.45,154.49 486.8672,178.5904 511.4372,201.9004 " fill="none" id="Program-to-LoggerService" style="stroke:#181818;stroke-width:1.0;"/><polygon fill="#181818" points="515.79,206.03,512.0139,196.9338,512.1627,202.5887,506.5078,202.7375,515.79,206.03" style="stroke:#181818;stroke-width:1.0;"/><text fill="#000000" font-family="sans-serif" font-size="13" lengthAdjust="spacing" textLength="29" x="481.68" y="172.9484">uses</text></g><!--link TransactionService to StorageService--><g id="link_TransactionService_StorageService"><path codeLine="56" d="M272.04,511.55 C255.54,535.49 240.0256,558.0002 222.6456,583.2102 " fill="none" id="TransactionService-to-StorageService" style="stroke:#181818;stroke-width:1.0;"/><polygon fill="#181818" points="219.24,588.15,227.6416,583.0106,222.078,584.0335,221.0551,578.4699,219.24,588.15" style="stroke:#181818;stroke-width:1.0;"/><text fill="#000000" font-family="sans-serif" font-size="13" lengthAdjust="spacing" textLength="53" x="250.16" y="554.8584">depends</text></g><!--link TransactionService to TransactionAddedEventArgs--><g id="link_TransactionService_TransactionAddedEventArgs"><path codeLine="57" d="M361.25,511.55 C389.93,552.89 422.4893,599.8006 445.1393,632.4406 " fill="none" id="TransactionService-to-TransactionAddedEventArgs" style="stroke:#181818;stroke-width:1.0;"/><polygon fill="#181818" points="448.56,637.37,446.7153,627.6955,445.7094,633.2622,440.1427,632.2564,448.56,637.37" style="stroke:#181818;stroke-width:1.0;"/><text fill="#000000" font-family="sans-serif" font-size="13" lengthAdjust="spacing" textLength="37" x="394.5" y="554.8584">raises</text></g><!--link TransactionAddedEventArgs to Transaction--><g id="link_TransactionAddedEventArgs_Transaction"><path codeLine="58" d="M449.41,702.52 C427.83,734.78 396.8666,781.0533 368.5166,823.4233 " fill="none" id="TransactionAddedEventArgs-to-Transaction" style="stroke:#181818;stroke-width:1.0;"/><polygon fill="#181818" points="365.18,828.41,373.5094,823.1544,367.9605,824.2544,366.8605,818.7056,365.18,828.41" style="stroke:#181818;stroke-width:1.0;"/></g><!--link LoggerService to TransactionService--><g id="link_LoggerService_TransactionService"><path codeLine="59" d="M502.77,304.28 C472.1,327.46 439.6762,351.9617 406.6062,376.9617 " fill="none" id="LoggerService-to-TransactionService" style="stroke:#181818;stroke-width:1.0;stroke-dasharray:7.0,7.0;"/><polygon fill="#181818" points="401.82,380.58,411.4115,378.3434,405.8085,377.5648,406.5872,371.9618,401.82,380.58" style="stroke:#181818;stroke-width:1.0;"/><text fill="#000000" font-family="sans-serif" font-size="13" lengthAdjust="spacing" textLength="123" x="457.47" y="347.4084">subscribes to event</text></g><!--link StorageService to Transaction--><g id="link_StorageService_Transaction"><path codeLine="60" d="M217.44,752.15 C233.96,777 248.6985,799.1733 264.8185,823.4233 " fill="none" id="StorageService-to-Transaction" style="stroke:#181818;stroke-width:1.0;"/><polygon fill="#181818" points="268.14,828.42,266.4888,818.7105,265.372,824.2561,259.8265,823.1393,268.14,828.42" style="stroke:#181818;stroke-width:1.0;"/><text fill="#000000" font-family="sans-serif" font-size="13" lengthAdjust="spacing" textLength="50" x="245.59" y="795.2684">persists</text></g><!--link Transaction to TransactionType--><g id="link_Transaction_TransactionType"><path codeLine="61" d="M316.5,976.02 C316.5,996.69 316.5,1012.44 316.5,1030.36 " fill="none" id="Transaction-to-TransactionType" style="stroke:#181818;stroke-width:1.0;"/><polygon fill="#181818" points="316.5,1036.36,320.5,1027.36,316.5,1031.36,312.5,1027.36,316.5,1036.36" style="stroke:#181818;stroke-width:1.0;"/></g><!--SRC=[VLDDRzim3BtxL-ZeOadHSn04y9Qc2D1jHH9WnqArM5UOzG5IpfOD- - -J_D5PihEB8PEFvECZIT-bjXovOlJ6XVaXTSLUUKsGqRkdh3dHpcZtXIjWdqo34Z3r5ywXV6aSx4kZZ_8NiBiiQpti2KqLSEirQ8SNQwHscmtxdJ7sWNtcKhFQ6Dl-5KASa6lYfPD6vpUjyG3Ad65gVm0Do1qSm1fqtlXdg3Z27W7FieIssf8TdK5UmM1yfkX_e92FuiSKyeT6YWNR-fedgM1WuJvUWkd0TGNvu4nXSFRDZudvEY3-KKwOTNJ9Q-e7yYouurk9K7hGfIV4HLSsZ-jyG-aWyIpOeoIt7XNVTE32Mj2HufFEjr23YyI_8i9Era1x_NyL0kqT6XN0UTVTQ6oFfge0voMeJHM2dhXxQpCTcnSg_SP1FXtsJHlvLQTgv-Ix1LnCnd0VXbDWHVCx56FwnHtvn-_P17r8K8xjHQThhmiB7t9SsTWS7ccTqyLwlF-qZbwPBGGTR5ixc0MKKl6Q5SeqsWKwe1irIHCOxNLfL4Xs_zFlWRzv3nwETRdSp9tHYZK45A7YgVM0cT20JRPyvTc63RoAlpw45KCkaqe994cGnKHlRwyqICDc4NEckziiuPraza4MaFoDHNHIMD3zBm00]--></g></svg>